<svg width="198" height="47" viewBox="0 0 198 47" fill="none" xmlns="http://www.w3.org/2000/svg">
<path d="M17.4066 39.8275H10.7408V29.158C10.7408 27.5094 10.2413 26.7244 8.87815 26.7244C7.51503 26.7244 6.65861 27.6522 6.65861 29.6576V39.8275H0V16.1191L6.65861 13.6141V24.8617C7.65776 22.5708 9.37773 21.2077 12.0326 21.2077C15.9007 21.2077 17.4066 23.9268 17.4066 28.7298V39.8275Z" fill="#101214"/>
<path d="M19.9829 24.1408L26.6415 21.6357V39.8988H19.9829V24.1408Z" fill="#101214"/>
<path d="M19.9829 16.4756L26.6415 13.9706V19.4873L19.9829 21.9923V16.4756Z" fill="#101214"/>
<path d="M40.1077 35.4597C39.03 37.8934 37.1744 39.1137 34.805 39.1137C30.6514 39.1137 28.646 35.317 28.646 30.1642C28.646 25.2969 30.5801 21.2861 35.0905 21.2861C37.4528 21.2861 39.1727 22.7206 40.0292 24.8687V21.6429H46.6164V37.4009C46.6164 43.1317 43.7546 46.9999 36.3038 46.9999C33.8701 46.9999 31.2937 46.643 29.2883 46.0721V40.1272C31.3651 40.9122 33.4419 41.2762 35.6614 41.2762C38.8873 41.2762 40.0292 39.699 40.0292 37.6222V35.474H40.1005L40.1077 35.4597ZM37.674 33.6684C39.1085 33.6684 40.1077 32.6692 40.1077 30.3712V29.7289C40.1077 27.6521 39.1085 26.7243 37.8168 26.7243C36.0968 26.7243 35.3117 27.9447 35.3117 30.0929C35.2404 32.4551 36.0968 33.6755 37.674 33.6755V33.6684Z" fill="#101214"/>
<path d="M66.8218 39.8274H60.1632V29.1579C60.1632 27.5093 59.6636 26.7243 58.3005 26.7243C56.9374 26.7243 56.081 27.6521 56.081 29.6575V39.8274H49.4224V16.119L56.081 13.614V24.8616C57.0801 22.5707 58.8001 21.2075 61.455 21.2075C65.3231 21.2075 66.829 23.9267 66.829 28.7297V39.8274H66.8218Z" fill="#101214"/>
<path d="M78.6406 39.8273L73.8447 21.5643H80.2892L83.2938 35.1028L86.2984 21.5643H92.6002L87.8043 39.8273H78.6406Z" fill="#101214"/>
<path d="M103.205 40.1845C95.8969 40.1845 92.6782 36.9586 92.6782 31.0208C92.6782 25.083 95.8327 21.2078 101.92 21.2078C108.008 21.2078 110.37 25.29 110.37 31.0208V32.384H99.2726C99.7008 34.1753 100.921 34.7462 103.426 34.7462C105.503 34.7462 107.865 34.4608 109.728 33.8898V39.1211C107.937 39.692 105.574 40.1987 103.212 40.1987L103.205 40.1845ZM99.0514 29.3722H104.354C104.211 26.9386 103.355 25.7896 101.778 25.7896C100.2 25.7896 99.2726 27.01 99.0585 29.3722H99.0514Z" fill="#101214"/>
<path d="M118.457 39.9701C114.731 39.9701 112.369 38.2502 112.369 34.0966V16.119L119.028 13.614V33.2402C119.028 34.0252 119.527 34.3178 120.248 34.3178H120.89V39.8345C120.605 39.8345 119.67 39.9773 118.457 39.9773V39.9701Z" fill="#101214"/>
<path d="M121.826 30.6566C121.826 24.9257 125.266 21.129 131.139 21.129C137.013 21.129 140.303 24.9257 140.303 30.6566C140.303 36.3874 136.934 40.2555 131.139 40.2555C125.266 40.2555 121.826 36.3874 121.826 30.6566ZM128.342 30.6566C128.342 32.9475 129.198 34.5961 131.132 34.5961C133.066 34.5961 133.78 32.9475 133.78 30.6566C133.78 28.3657 132.923 26.8598 131.132 26.8598C129.198 26.8598 128.342 28.3657 128.342 30.6566Z" fill="#101214"/>
<path d="M156.202 39.0351C154.982 39.7488 153.412 40.1842 151.478 40.1842C144.819 40.1842 141.665 36.2447 141.665 30.6566C141.665 25.0685 144.748 21.129 151.049 21.129C153.198 21.129 154.561 21.4858 156.131 22.278V28.0088C154.982 27.5092 153.769 27.1524 152.049 27.1524C149.329 27.1524 148.18 28.801 148.18 30.6637C148.18 32.6691 149.472 34.1036 152.263 34.1036C154.197 34.1036 155.196 33.8182 156.202 33.4613V39.0494V39.0351Z" fill="#101214"/>
<path d="M158.351 24.1408L165.009 21.6357V39.8988H158.351V24.1408Z" fill="#101214"/>
<path d="M176.757 34.2389C177.256 34.2389 177.756 34.1675 178.191 34.0962V39.7556C177.264 39.9697 176.257 40.1125 174.68 40.1125C170.098 40.1125 168.521 37.3934 168.521 33.4539V26.367H165.01V21.6425H168.521V18.488L175.108 15.983V21.6425H178.191V27.0165H175.108V32.6046C175.037 33.6822 175.608 34.2532 176.757 34.2532V34.2389Z" fill="#101214"/>
<path d="M179.548 46.3432V40.541C180.769 40.8265 181.839 40.9692 183.274 40.9692C185.85 40.9692 186.785 39.9701 187.284 38.1074H183.202L178.834 21.5643H185.279L188.284 34.0965L191.288 21.5643H197.733L192.937 39.185C191.502 44.3449 188.64 46.9213 184.059 46.9213C181.554 46.8499 180.547 46.7786 179.548 46.3504V46.3432Z" fill="#101214"/>
<path d="M165.152 13.6855L158.137 16.1905V22.0641L165.152 19.4877V13.6855Z" fill="#101214"/>
<path d="M44.1261 6.5277C44.1261 5.31445 43.4838 4.74351 41.6282 4.3153C40.6291 4.1012 40.3436 3.88709 40.3436 3.53025C40.3436 3.10205 40.7004 2.95931 41.4141 2.95931C42.2705 2.95931 43.0556 3.17342 43.8406 3.53025V1.8888C43.2697 1.60332 42.4846 1.38922 41.4855 1.38922C39.6299 1.38922 38.7021 2.17427 38.7021 3.45889C38.7021 4.5294 39.2017 5.31445 41.1287 5.67129C42.2705 5.88539 42.4846 6.09949 42.4846 6.45633C42.4846 6.81317 42.2705 7.02728 41.4141 7.02728C40.4863 7.02728 39.4158 6.67044 38.7021 6.3136V8.02642C39.2731 8.31189 40.0581 8.59737 41.4141 8.59737C43.3411 8.7401 44.1261 7.81232 44.1261 6.5277Z" fill="#101214"/>
<path d="M2.59066 3.9583C2.44793 3.81557 2.23383 3.81557 2.16246 4.02967L0.0214243 8.24037C-0.0499435 8.38311 0.092792 8.59721 0.235528 8.59721H3.16161C3.23297 8.59721 3.32575 8.54725 3.37571 8.45447C4.08939 7.16985 3.73255 5.17156 2.59066 3.9583Z" fill="#101214"/>
<path d="M4.16063 0.104393C3.01875 1.95995 3.09012 4.02962 3.80379 5.59971C4.58884 7.1698 5.15264 8.31169 5.23115 8.45442C5.28111 8.55434 5.37388 8.59716 5.44525 8.59716H8.37133C8.58543 8.59716 8.6568 8.38305 8.58543 8.24032C8.58543 8.24032 4.58884 0.318496 4.51747 0.104393C4.46038 -0.0312062 4.232 -0.038343 4.16063 0.104393Z" fill="#101214"/>
<path d="M64.1807 1.5321V8.66888H65.6794V3.24493L66.3217 4.67229L68.4627 8.66888H70.3897V1.5321H68.8909V6.09964L68.32 4.74365L66.6072 1.5321H64.1807Z" fill="#101214"/>
<path d="M54.5472 1.5321H52.9058V8.66888H54.5472V1.5321Z" fill="#101214"/>
<path d="M51.0499 6.5277C51.0499 5.31445 50.4076 4.74351 48.5521 4.3153C47.5529 4.1012 47.2674 3.88709 47.2674 3.53025C47.2674 3.10205 47.6243 2.95931 48.338 2.95931C49.1944 2.95931 49.9794 3.17342 50.7645 3.53025V1.8888C50.1935 1.60332 49.4085 1.38922 48.4093 1.38922C46.5538 1.38922 45.626 2.17427 45.626 3.45889C45.626 4.5294 46.1256 5.31445 48.0525 5.67129C49.1944 5.88539 49.4085 6.09949 49.4085 6.45633C49.4085 6.81317 49.1944 7.02728 48.338 7.02728C47.4102 7.02728 46.3397 6.67044 45.626 6.3136V8.02642C46.1969 8.31189 46.982 8.59737 48.338 8.59737C50.2649 8.7401 51.0499 7.81232 51.0499 6.5277Z" fill="#101214"/>
<path d="M25.8574 1.5321V8.66888H29.2117L29.7113 7.09879H27.4275V1.5321H25.8574Z" fill="#101214"/>
<path d="M19.147 1.5321V3.03083H20.9312V8.59751H22.5726V3.03083H24.5709V1.5321H19.147Z" fill="#101214"/>
<path d="M16.7224 1.5321H14.5814L12.0835 8.66888H14.0104L14.3673 7.45563C14.7955 7.59836 15.2237 7.66973 15.7233 7.66973C16.1515 7.66973 16.651 7.59836 17.0792 7.45563L17.4361 8.66888H19.363C19.2203 8.66888 16.7224 1.5321 16.7224 1.5321ZM15.6519 6.17101C15.295 6.17101 15.0096 6.09964 14.7241 6.02827L15.6519 2.95946L16.5797 6.02827C16.2942 6.09964 15.9374 6.17101 15.6519 6.17101Z" fill="#101214"/>
<path d="M35.135 1.5321H32.994L30.4961 8.66888H32.423L32.7799 7.45563C33.2081 7.59836 33.6363 7.66973 34.1359 7.66973C34.6354 7.66973 35.0636 7.59836 35.4918 7.45563L35.8487 8.66888H37.7756L35.135 1.5321ZM33.9931 6.17101C33.6363 6.17101 33.3508 6.09964 33.0653 6.02827L33.9931 2.95946L34.9209 6.02827C34.6354 6.09964 34.35 6.17101 33.9931 6.17101Z" fill="#101214"/>
<path d="M60.5412 1.5321H58.4002L55.9023 8.66888H57.8293L58.1861 7.45563C58.6143 7.59836 59.0425 7.66973 59.5421 7.66973C60.0417 7.66973 60.4699 7.59836 60.8981 7.45563L61.2549 8.66888H63.1819L60.5412 1.5321ZM59.4707 6.17101C59.1139 6.17101 58.8284 6.09964 58.5429 6.02827L59.4707 2.95946L60.3985 6.02827C60.113 6.09964 59.7562 6.17101 59.4707 6.17101Z" fill="#101214"/>
<path d="M77.6189 6.69901H76.4271V8.66162H74.6929V1.53198H77.6261C79.4602 1.53198 80.3595 2.53113 80.3595 4.12977C80.3595 5.72841 79.4602 6.70615 77.6261 6.70615L77.6189 6.69901ZM78.7251 4.14404C78.7251 3.48032 78.3754 3.03784 77.4691 3.03784H76.4271V5.27165H77.4691C78.3826 5.30734 78.7251 4.85058 78.7251 4.14404Z" fill="#101214"/>
<path d="M82.8358 8.6616H81.23V3.11633H82.8358V4.17971C83.1426 3.43034 83.6279 2.98786 84.4986 3.03782V4.67928C83.371 4.59364 82.8358 4.86484 82.8358 5.75693V8.66874V8.6616Z" fill="#101214"/>
<path d="M88.1598 8.7684C85.9973 8.7684 85.041 7.71216 85.041 5.9351C85.041 4.15805 85.9831 2.99475 87.7744 2.99475C89.5657 2.99475 90.2723 4.208 90.2723 5.9351V6.35617H86.6325C86.761 7.06985 87.232 7.39814 88.1955 7.39814C88.8449 7.39814 89.4872 7.29109 90.0296 7.11267V8.44011C89.53 8.64708 88.8164 8.7684 88.1526 8.7684H88.1598ZM86.6182 5.47835H88.7878C88.7236 4.62194 88.3953 4.19373 87.7316 4.19373C87.0393 4.19373 86.6896 4.65762 86.6111 5.47835H86.6182Z" fill="#101214"/>
<path d="M93.2851 8.78269C92.4073 8.78269 91.665 8.57572 91.2225 8.34021V6.96281C91.7221 7.2126 92.5714 7.49807 93.2993 7.49807C93.7846 7.49807 94.0344 7.31251 94.0344 7.03418C94.0344 6.75584 93.8061 6.61311 93.0995 6.44896C91.6365 6.17776 91.144 5.57114 91.144 4.70045C91.144 3.6228 91.9505 3.00903 93.3279 3.00903C94.1058 3.00903 94.8338 3.18032 95.2834 3.42297V4.79323C94.5697 4.48635 93.9131 4.29365 93.3065 4.29365C92.8283 4.29365 92.5928 4.4578 92.5928 4.729C92.5928 4.97878 92.7784 5.12866 93.5491 5.30708C95.0479 5.59968 95.526 6.15635 95.526 7.04131C95.526 8.10469 94.8837 8.79696 93.2922 8.79696L93.2851 8.78269Z" fill="#101214"/>
<path d="M99.4215 8.7684C97.2591 8.7684 96.3027 7.71216 96.3027 5.9351C96.3027 4.15805 97.2448 2.99475 99.0361 2.99475C100.827 2.99475 101.534 4.208 101.534 5.9351V6.35617H97.8942C98.0227 7.06985 98.4937 7.39814 99.4572 7.39814C100.107 7.39814 100.749 7.29109 101.291 7.11267V8.44011C100.792 8.64708 100.078 8.7684 99.4144 8.7684H99.4215ZM97.88 5.47835H100.05C99.9853 4.62194 99.657 4.19373 98.9933 4.19373C98.301 4.19373 97.9513 4.65762 97.8728 5.47835H97.88Z" fill="#101214"/>
<path d="M107.679 8.66135H106.059V5.34275C106.059 4.67189 105.809 4.37929 105.224 4.37929C104.639 4.37929 104.225 4.77181 104.225 5.5854V8.66849H102.605V3.11608H104.225V4.0724C104.553 3.38727 105.117 2.99475 105.888 2.99475C107.101 2.99475 107.679 3.85116 107.679 5.34275V8.66849V8.66135Z" fill="#101214"/>
<path d="M111.462 7.26265C111.648 7.26265 111.812 7.22696 111.948 7.19842V8.61863C111.705 8.68287 111.448 8.72569 111.034 8.72569C109.721 8.72569 109.2 7.95492 109.2 6.81303V4.46503H108.536V3.10904H109.2V1.96002H110.806V3.10904H111.948V4.46503H110.806V6.62747C110.806 7.02713 111.02 7.25551 111.455 7.25551L111.462 7.26265Z" fill="#101214"/>
<path d="M114.979 8.78269C114.102 8.78269 113.359 8.57572 112.917 8.34021V6.96281C113.416 7.2126 114.266 7.49807 114.994 7.49807C115.479 7.49807 115.729 7.31251 115.729 7.03418C115.729 6.75584 115.5 6.61311 114.794 6.44896C113.331 6.17776 112.838 5.57114 112.838 4.70045C112.838 3.6228 113.645 3.00903 115.022 3.00903C115.8 3.00903 116.528 3.18032 116.978 3.42297V4.79323C116.264 4.48635 115.607 4.29365 115.001 4.29365C114.523 4.29365 114.287 4.4578 114.287 4.729C114.287 4.97878 114.473 5.12866 115.243 5.30708C116.742 5.59968 117.22 6.15635 117.22 7.04131C117.22 8.10469 116.578 8.79696 114.987 8.79696L114.979 8.78269Z" fill="#101214"/>
</svg>
